<svg xmlns:dc="http://purl.org/dc/elements/1.1/" xmlns:cc="http://creativecommons.org/ns#" xmlns:rdf="http://www.w3.org/1999/02/22-rdf-syntax-ns#" xmlns:svg="http://www.w3.org/2000/svg" xmlns="http://www.w3.org/2000/svg" xmlns:sodipodi="http://sodipodi.sourceforge.net/DTD/sodipodi-0.dtd" xmlns:inkscape="http://www.inkscape.org/namespaces/inkscape" version="1.1" x="0px" y="0px" viewBox="0 0 100 125"><g transform="translate(0,-952.36218)"><path style="text-indent:0;text-transform:none;direction:ltr;block-progression:tb;baseline-shift:baseline;color:#000000;enable-background:accumulate;" d="m 8,970.36217 c -1.0907,0 -2,0.9093 -2,2 l 0,54.00003 c 0,1.0907 0.9093,2 2,2 l 57.2188,0 c -1.0777,2.0172 -2.1128,3.9187 -3.2188,6 l 32,0 c -2.5904,-4.812 -5.2556,-9.8095 -8,-14.9688 l 0,-47.03123 c 0,-1.0907 -0.9093,-2 -2,-2 l -76,0 z m 0,2 76,0 0,41.65623 -1.7812,-1.7187 c -1.4061,-2.6428 -2.7594,-5.2044 -4.2188,-7.9375 -0.4402,0.835 -0.9295,1.7213 -1.375,2.5625 L 59.6875,990.64337 c -0.5388,-0.4449 -1.0512,-0.3297 -1.4375,0.031 l -18.3438,20.28133 -14.625,-12.37503 c -0.3512,-0.2815 -0.8984,-0.2815 -1.25,0 L 8,1011.2997 8,972.36217 z m 29,8 c -3.8542,0 -7,3.1458 -7,7 0,3.8542 3.1458,7 7,7 3.8542,0 7,-3.1458 7,-7 0,-3.8542 -3.1458,-7 -7,-7 z m 0,2 c 2.7733,0 5,2.2267 5,5 0,2.7733 -2.2267,5 -5,5 -2.7733,0 -5,-2.2267 -5,-5 0,-2.7733 2.2267,-5 5,-5 z m 22.0625,10.4375 16.5937,15.96873 c -2.9986,5.6472 -6.1277,11.5219 -9.375,17.5938 l -58.2812,0 0,-12.5312 16.625,-13.1876 14.7188,12.4688 c 0.3934,0.3418 1.0616,0.2978 1.4062,-0.094 L 59.0625,992.79947 z M 78,1008.6122 l 12.625,23.7188 -25.25,0 L 78,1008.6122 z m 0,2.7188 c -0.5523,0 -1,0.4477 -1,1 l 0,13 c 0,0.5522 0.4477,1 1,1 0.5523,0 1,-0.4478 1,-1 l 0,-13 c 0,-0.5523 -0.4477,-1 -1,-1 z m 0,16 c -1.1046,0 -2,0.8953 -2,2 0,1.1046 0.8954,2 2,2 1.1046,0 2,-0.8954 2,-2 0,-1.1047 -0.8954,-2 -2,-2 z" fill="#000000" fill-opacity="1" stroke="none" marker="none" visibility="visible" display="inline" overflow="visible"/></g>
</svg>